<svg width="1522" height="1462" viewBox="0 0 1522 1462" fill="none" xmlns="http://www.w3.org/2000/svg">
<path d="M645.05 491.457C631.298 491.457 615.975 482.025 615.975 456.481V451.175C615.975 423.272 629.923 413.054 646.033 413.054C664.893 413.054 675.305 429.757 675.305 452.354C675.305 478.292 662.339 491.457 645.05 491.457Z" fill="black"/>
<path d="M405.989 433.49C411.49 433.49 416.205 433.294 419.741 432.704C429.171 430.936 436.833 424.255 436.833 409.91C436.833 395.566 429.171 388.885 419.741 387.117C416.205 386.527 411.49 386.331 405.989 386.331H382.611V433.49H405.989Z" fill="black"/>
<path d="M417.58 657.582C413.258 658.368 408.739 658.368 402.06 658.368H382.611V557.172H402.846C409.329 557.172 414.044 557.368 418.366 558.154C439.976 561.298 453.531 577.804 453.531 606.296C453.531 636.361 439.387 654.438 417.58 657.582Z" fill="black"/>
<path d="M512.026 623.392C512.026 646.971 523.028 662.691 542.084 662.691C560.944 662.691 571.946 646.971 571.946 623.392C571.946 599.812 560.944 584.289 542.084 584.289C523.028 584.289 512.026 599.812 512.026 623.392Z" fill="black"/>
<path d="M803.477 646.578C803.477 657.582 810.746 662.691 822.141 662.691C835.696 662.691 845.322 653.456 845.322 636.557V626.929C819.98 624.964 803.477 630.662 803.477 646.578Z" fill="black"/>
<path fill-rule="evenodd" clip-rule="evenodd" d="M1369 1168C1448.99 1058 1536.68 916.851 1519 676C1503.56 477.537 1459.87 377.373 1287 208C1163.51 87.0133 985.699 -7.22728 758.371 1.47478C541.708 15.5104 324.615 71.9227 176.992 276C71.747 410.18 0.155626 574.688 0.997582 727.676C8.85584 976.948 19.8241 1052.17 176.989 1222C297.389 1331.2 448.065 1462 741 1462C1066.55 1462 1289.01 1278 1369 1168ZM651.141 397.335C640.532 397.335 629.727 400.282 623.833 405.195L615.975 416.395V360H594.365V504.426H615.975V490.278L622.851 500.693C628.155 504.819 638.96 507.177 647.604 507.177C674.519 507.177 698.094 488.706 698.094 450.389C698.094 419.932 681.002 397.335 651.141 397.335ZM405.4 368.842C412.668 368.842 417.58 368.842 423.866 369.628C445.084 372.379 459.622 385.938 459.622 409.91C459.622 433.883 443.512 447.638 423.866 450.193C417.58 450.979 412.668 450.979 405.4 450.979H382.611V504.426H361V368.842H405.4ZM545.346 400.086H566.759V504.426H545.346V486.545L538.077 499.514C529.826 505.409 522.164 507.177 511.752 507.177C490.141 507.177 477.568 494.994 475.211 480.65C474.425 475.344 474.228 470.628 474.228 462.179V400.086H495.642V457.856C495.642 461.197 495.839 466.895 496.428 472.2C498 483.597 505.465 491.064 518.824 491.064C533.951 491.064 545.346 479.471 545.346 449.21V400.086ZM716.556 360H738.166V472.593C738.166 476.13 738.166 479.274 738.363 482.418C738.756 488.313 741.506 490.278 750.739 489.492V504.623C746.417 505.212 741.506 505.605 736.595 505.605C725.2 505.605 717.538 501.479 716.752 488.117C716.556 484.187 716.556 479.471 716.556 473.183V360ZM779.563 363.733C772.294 363.733 766.99 369.039 766.99 376.113C766.99 383.383 772.294 388.689 779.563 388.689C786.832 388.689 792.333 383.383 792.333 376.113C792.333 369.039 786.832 363.733 779.563 363.733ZM790.368 504.426V400.086H768.758V504.426H790.368ZM810.206 452.747C810.206 417.181 833.388 397.335 860.695 397.335C887.02 397.335 903.719 413.251 906.273 436.241H884.466C881.323 420.325 872.875 413.054 860.106 413.054C844.979 413.054 832.995 425.041 832.995 451.175C832.995 479.471 844.782 491.457 859.32 491.457C871.697 491.457 880.537 483.99 883.681 469.842H905.684C900.772 494.798 882.698 507.177 858.141 507.177C830.834 507.177 810.206 489.885 810.206 452.747ZM422.098 540.862C415.222 540.077 412.079 540.076 404.81 540.076H361V675.66H404.024C411.293 675.66 414.437 675.66 421.313 674.874C452.746 670.944 476.713 646.775 476.713 606.296C476.713 565.228 453.531 544.596 422.098 540.862ZM489.237 623.392C489.237 592.935 506.918 568.569 542.084 568.569C577.053 568.569 594.931 592.935 594.931 623.392C594.931 653.849 577.053 678.411 542.084 678.411C506.918 678.411 489.237 653.849 489.237 623.392ZM760.097 594.113C757.74 579.769 746.738 568.569 727.485 568.569C718.252 568.569 710.983 570.337 705.286 574.66L695.659 588.415C691.73 576.822 681.318 568.569 664.816 568.569C655.386 568.569 648.117 570.337 642.616 574.66L635.544 586.843V571.32H613.934V675.66H635.544V623.195C635.544 594.899 643.795 584.485 656.565 584.485C667.763 584.485 674.442 590.38 676.014 601.58C676.603 606.886 676.8 612.584 676.8 620.444V675.66H698.213V623.195C698.213 594.899 706.661 584.485 719.234 584.485C730.432 584.485 737.308 590.38 738.683 601.58C739.273 606.886 739.469 612.584 739.469 620.444V675.66H761.079V612.584C761.079 604.135 760.883 599.419 760.097 594.113ZM868.897 675.66H847.483L845.519 660.53L840.215 671.73C833.142 676.643 824.105 678.411 814.282 678.411C795.815 678.411 780.688 667.8 780.688 648.347C780.688 625.16 799.155 612.584 838.643 612.584H845.322V610.03C845.322 606.1 845.322 602.563 844.93 598.633C844.34 590.184 839.036 584.289 826.659 584.289C814.086 584.289 807.603 591.362 806.424 604.331H784.814C786.189 581.538 803.281 568.569 827.052 568.569C853.967 568.569 864.575 579.966 866.343 597.65C866.736 601.973 866.933 607.475 866.933 612.388V649.133C866.933 656.993 867.326 664.067 868.897 675.66ZM905.226 534.968C897.957 534.968 892.653 540.273 892.653 547.347C892.653 554.617 897.957 559.923 905.226 559.923C912.495 559.923 917.996 554.617 917.996 547.347C917.996 540.273 912.495 534.968 905.226 534.968ZM916.031 675.66V571.32H894.421V675.66H916.031ZM998.735 568.569C1021.13 568.569 1033.9 580.162 1035.87 598.436C1036.26 603.742 1036.45 608.458 1036.45 616.907V675.66H1014.84V619.265C1014.84 614.353 1014.84 609.833 1014.45 604.528C1013.47 592.738 1007.18 584.485 992.448 584.485C977.518 584.485 965.337 596.275 965.337 628.894V675.66H943.727V571.32H965.337V588.612L972.41 576.625C980.661 570.337 988.323 568.569 998.735 568.569Z" fill="black"/>
</svg>
